<svg xmlns="http://www.w3.org/2000/svg" xmlns:xlink="http://www.w3.org/1999/xlink" viewBox="0 0 83.13 83.134"><defs><style>.a{fill:url(#a);}</style><linearGradient id="a" x1="0.5" x2="0.5" y2="1.003" gradientUnits="objectBoundingBox"><stop offset="0" stop-color="#05f1f5"/><stop offset="1" stop-color="#07dbf3"/></linearGradient></defs><g transform="translate(41.565 41.567)"><g transform="translate(-41.565 -41.567)"><path class="a" d="M82.048,82.048l-.62-40.592-.262-20.079-.187-20L82.048,2.45,61.88,2.583l-20.168.1L1.377,2.755,2.755,1.377,2.683,41.712l-.1,20.168q-.037,10.084-.132,20.168L1.377,80.974l20,.188,20.078.263Zm0,0-40.075.626-20.257.263-20.337.188-1.064.01L.3,82.048Q.216,71.965.172,61.882l-.1-20.169L0,1.377,0,0,1.377,0,41.712.079l20.168.1L82.048.309,83.13.315l-.01,1.062-.188,20.336-.262,20.256Z"/><rect width="43.286" height="1.574" transform="translate(20.071 41.091)"/><rect width="43.286" height="1.574" transform="translate(20.071 36.894)"/><rect width="43.286" height="1.574" transform="translate(20.071 45.289)"/></g></g></svg>