<svg xmlns="http://www.w3.org/2000/svg" viewBox="0 0 52.927 61.115"><defs><style>.a{fill:#3abcdb;}.b{fill:#52c0d2;}.c{fill:#139396;}</style></defs><g transform="translate(26.463 30.558)"><g transform="translate(-26.463 -30.558)"><path class="a" d="M6.632,55.372V51.543L42.98,30.558,46.3,28.643,6.632,5.744,3.316,3.829,0,1.915,3.316,0,6.632,1.915l42.98,24.814,3.314,1.915-3.314,1.915-3.318,1.915Z"/><path class="b" d="M19,97.336V43.88l3.316,1.915v45.8l39.663-22.9L65.3,66.78l3.314-1.915v3.829l-3.316,1.915L22.316,95.421Z" transform="translate(-15.684 -36.222)"/><path class="c" d="M3.316,70.171h0L0,68.256V10.97l3.316,1.915L6.632,14.8,46.3,37.7,42.98,39.613,6.632,18.628,3.316,16.714Z" transform="translate(0 -9.055)"/></g></g></svg>