<svg xmlns="http://www.w3.org/2000/svg" xmlns:xlink="http://www.w3.org/1999/xlink" viewBox="0 0 81.243 542.501"><defs><style>.a{fill:url(#a);}</style><linearGradient id="a" x1="0.481" y1="-0.382" x2="0.535" y2="0.909" gradientUnits="objectBoundingBox"><stop offset="0.251" stop-color="#07dbf3"/><stop offset="0.672" stop-color="#05f1f5"/></linearGradient></defs><path class="a" d="M40.445,0A39.215,39.215,0,0,1,69.276,12.014,39.565,39.565,0,0,1,81.239,40.96a39.142,39.142,0,0,1-11.96,28.609A39.2,39.2,0,0,1,40.445,81.585,38.8,38.8,0,0,1,11.958,69.576,39.136,39.136,0,0,1,0,40.96,39.558,39.558,0,0,1,11.958,12.014,38.819,38.819,0,0,1,40.445,0ZM15.9,158.232H65.342V542.5H15.9Z" transform="translate(0 0)"/></svg>