<svg xmlns="http://www.w3.org/2000/svg" xmlns:xlink="http://www.w3.org/1999/xlink" viewBox="0 0 307 90.788"><defs><style>.a{fill:url(#a);}.b{font-size:24px;font-family:Gugi-Regular, Gugi;}</style><linearGradient id="a" x1="0.5" x2="0.5" y2="1.001" gradientUnits="objectBoundingBox"><stop offset="0" stop-color="#05f1f5"/><stop offset="1" stop-color="#07dbf3"/></linearGradient></defs><g transform="translate(144.25 42.658)"><g transform="translate(-144.25 -42.658)"><path class="a" d="M305.781,88.141l-.625-42.954-.317-21.269-.262-21.168,1.205,1.205L267.9,4.336l-37.879.33-37.879.25-37.879.208-37.879.15-37.879.117-75.76.1L5.493,2.749l-.11,85.392L2.749,85.505l75.319.333,75.488.59,75.85.8Zm0,0-75.14.908-75.666.8-76.028.59-76.2.333-2.631.012,0-2.647L0,2.749,0,0,2.749,0,78.507.1l37.879.117,37.879.15L192.144.58l37.879.25,37.879.33,37.879.382,1.22.012-.015,1.195-.265,21.527L306.4,45.7Z"/><text class="b" transform="translate(102 54.099)"><tspan x="0" y="0">View App</tspan></text></g></g></svg>